<?xml version="1.0" encoding="UTF-8" standalone="no"?>
<!-- Uploaded to: SVG Repo, www.svgrepo.com, Generator: SVG Repo Mixer Tools -->

<svg
   width="699.99884"
   height="699.99957"
   viewBox="0 0 27.999954 27.999983"
   fill="none"
   version="1.1"
   id="svg2"
   sodipodi:docname="git-iconsvg.svg"
   inkscape:version="1.3.2 (091e20e, 2023-11-25, custom)"
   xmlns:inkscape="http://www.inkscape.org/namespaces/inkscape"
   xmlns:sodipodi="http://sodipodi.sourceforge.net/DTD/sodipodi-0.dtd"
   xmlns="http://www.w3.org/2000/svg"
   xmlns:svg="http://www.w3.org/2000/svg">
  <defs
     id="defs2" />
  <sodipodi:namedview
     id="namedview2"
     pagecolor="#ffffff"
     bordercolor="#000000"
     borderopacity="0.25"
     inkscape:showpageshadow="2"
     inkscape:pageopacity="0.0"
     inkscape:pagecheckerboard="0"
     inkscape:deskcolor="#d1d1d1"
     showguides="true"
     inkscape:zoom="0.38846679"
     inkscape:cx="526.42853"
     inkscape:cy="343.65872"
     inkscape:window-width="1920"
     inkscape:window-height="1057"
     inkscape:window-x="1912"
     inkscape:window-y="-8"
     inkscape:window-maximized="1"
     inkscape:current-layer="svg2">
    <sodipodi:guide
       position="10.129739,28.95761"
       orientation="0.70710768,0.70710589"
       id="guide3"
       inkscape:locked="false" />
  </sodipodi:namedview>
  <path
     style="fill:#ffffff;fill-opacity:1;stroke:none;stroke-width:0.2"
     d="M 10.129739,3.04239 8.9144218,4.2577344 10.279011,11.4117 11.77206,22.558084 13.599758,23.381835 17.744257,22.0936 22.171919,18.130421 24.643173,14.19186 20.112541,9.506775 15.375972,5.05337 11.437411,2.993992 Z"
     id="path4" />
  <path
     id="path1"
     style="fill:#ee513b;fill-opacity:1;stroke:none"
     d="m 13.999969,0 c -0.511474,0 -1.022954,0.195151 -1.413203,0.5853906 l -2.456953,2.4569531 3.239843,3.2399219 c 0.1991,-0.06169 0.410623,-0.094922 0.629922,-0.094922 1.173599,-1e-7 2.125,0.9514592 2.125,2.1250782 0,0.2193 -0.03322,0.430844 -0.09492,0.629844 l 3.2225,3.2225002 c 0.205999,-0.0665 0.42565,-0.102344 0.65375,-0.102344 1.173598,0 2.125,0.951401 2.125,2.125 0,1.173599 -0.951402,2.125 -2.125,2.125 -1.173599,0 -2.125,-0.951401 -2.125,-2.125 -1e-6,-0.312 0.06717,-0.608335 0.187968,-0.875234 l -3.000468,-3.000469 v 7.765078 c 0.686499,0.3522 1.156171,1.067198 1.156171,1.891797 0,1.173599 -0.951401,2.125 -2.125,2.125 -1.173598,0 -2.125,-0.951401 -2.125,-2.125 0,-0.909599 0.571501,-1.685729 1.375,-1.988828 v -7.678594 c -0.803499,-0.3031002 -1.375,-1.0791512 -1.375,-1.9887502 0,-0.3203898 0.07089,-0.624221 0.197891,-0.8966407 L 8.9144218,4.2577344 0.5853594,12.586797 c -0.7804792,0.780499 -0.7804792,2.045907 0,2.826406 L 12.586766,27.414609 c 0.780499,0.7805 2.045907,0.7805 2.826406,0 L 27.414578,15.413203 c 0.7805,-0.780499 0.7805,-2.045907 0,-2.826406 L 15.413172,0.5853906 C 15.022923,0.195151 14.511443,0 13.999969,0 Z" />
</svg>
