<?xml version="1.0" encoding="UTF-8" standalone="no"?>
<!-- Uploaded to: SVG Repo, www.svgrepo.com, Generator: SVG Repo Mixer Tools -->

<svg
   width="649.99939"
   height="699.99951"
   viewBox="0 0 25.999976 27.99998"
   fill="none"
   version="1.1"
   id="svg2"
   sodipodi:docname="node-js-svgrepo-com.svg"
   inkscape:version="1.3.2 (091e20e, 2023-11-25, custom)"
   xmlns:inkscape="http://www.inkscape.org/namespaces/inkscape"
   xmlns:sodipodi="http://sodipodi.sourceforge.net/DTD/sodipodi-0.dtd"
   xmlns="http://www.w3.org/2000/svg"
   xmlns:svg="http://www.w3.org/2000/svg">
  <defs
     id="defs2" />
  <sodipodi:namedview
     id="namedview2"
     pagecolor="#ffffff"
     bordercolor="#000000"
     borderopacity="0.25"
     inkscape:showpageshadow="2"
     inkscape:pageopacity="0.0"
     inkscape:pagecheckerboard="0"
     inkscape:deskcolor="#d1d1d1"
     inkscape:zoom="1.09875"
     inkscape:cx="325.36974"
     inkscape:cy="349.94312"
     inkscape:window-width="1920"
     inkscape:window-height="1057"
     inkscape:window-x="1912"
     inkscape:window-y="-8"
     inkscape:window-maximized="1"
     inkscape:current-layer="svg2" />
  <path
     d="m 14.172498,0.29872163 c -0.7098,-0.39919 -1.6352,-0.3974 -2.3456,0 C 8.2688978,2.2622716 4.7108178,4.2264116 1.1521578,6.1890616 0.45968785,6.5533516 -0.00736215,7.2969816 8.7848752e-5,8.0688016 V 19.932802 c -0.0049999988,0.7869 0.486130001248,1.5377 1.196459951248,1.897 1.02216,0.5438 2.01525,1.1428 3.05589,1.6504 1.20207,0.5907 2.70599,0.7213 3.92276,0.1053 0.9877,-0.5105 1.4264,-1.646 1.4251,-2.6895 0.008,-3.9154 0.0013,-7.8309 0.0031,-11.7464004 0.0235,-0.174 -0.1072,-0.36 -0.297,-0.3558 -0.4547,-0.0072 -0.91,-0.0042 -1.3647,-0.0012 -0.1718,-0.0162 -0.3395,0.1265 -0.3265,0.2992 -0.0061,3.8902004 0.0012,7.7816004 -0.0037,11.6724004 0.0099,0.5382 -0.3537,1.0554 -0.87237,1.2372 -1.19793,0.4199 -4.61715,-1.8002 -4.61715,-1.8002 -0.12548,-0.0581 -0.20516,-0.1942 -0.19286,-0.3294 0,-3.9142 6.1e-4,-7.8285 0,-11.7421004 -0.01725,-0.15779 0.08,-0.2999 0.2249,-0.36432 3.54631,-1.95198 7.09078,-3.90884 10.6370802,-5.86202 0.1232,-0.08221 0.2949,-0.08196 0.4178,6e-4 3.5463,1.95258 7.0914,3.90765 10.6383,5.85972 0.1454,0.06432 0.2385,0.20882 0.2237,0.36602 -6e-4,3.9136004 0.0012,7.8279004 -0.0012,11.7416004 0.0105,0.1385 -0.0611,0.2727 -0.1904,0.3335 -3.5132,1.9414 -7.0664,3.8202 -10.5478,5.818 -0.1519,0.0871 -0.324,0.1858 -0.4942,0.0898 -0.9155,-0.5064 -1.8199,-1.0325 -2.7324,-1.5438 -0.0992,-0.0619 -0.2255002,-0.0885 -0.3290002,-0.0192 -0.4091,0.2156 -0.7939,0.3902 -1.2637,0.5762 -0.6598,0.2612 -0.5544,0.368 0.0407,0.7147 1.0671,0.6039 2.1360002,1.2054 3.2031002,1.8099 0.7025,0.4384 1.6464,0.4696 2.3715,0.0645 3.5586,-1.9611 7.1161,-3.9245 10.6754,-5.8856 0.7084,-0.3613 1.202,-1.1091 1.197,-1.8966 V 8.0688016 c 0.0069,-0.75616 -0.4423,-1.48653 -1.1139,-1.85621 -3.5704,-1.97312 -7.1425,-3.94195 -10.7135,-5.91386997 z"
     fill="#8cc84b"
     id="path1" />
  <path
     d="m 19.541898,9.2062016 c -1.3967,-0.7472 -3.0583,-0.787 -4.6104,-0.6893 -1.1213,0.1108 -2.3006,0.4202 -3.1175,1.224 -0.8379,0.8080004 -1.0203,2.1128004 -0.6223,3.1676004 0.2852,0.7454 1.0031,1.2301 1.7455,1.4865 0.9563,0.3376 1.9607,0.442 2.9654,0.5464 0.9164,0.0952 1.8331,0.1905 2.7139,0.4628 0.3598,0.1192 0.7788,0.3016 0.889,0.6931 0.1018,0.4636 -0.0098,1.0025 -0.3862,1.3246 -1.1956,0.9463 -4.5214,0.8013 -5.7027,0.0565 -0.4776,-0.3173 -0.6834,-0.879 -0.7671,-1.4143 -0.0093,-0.1668 -0.1436,-0.3198 -0.3247,-0.3071 -0.4535,-0.0054 -0.907,-0.0042 -1.3605,-6e-4 -0.1582,-0.0133 -0.3227,0.0993 -0.3314,0.2608 -0.0932,2.4517 2.1585,3.5205 4.271,3.7558 1.2069,0.115 2.4403,0.1084 3.6288,-0.1506 0.8934,-0.2034 1.7892,-0.578 2.4042,-1.2661 0.7584,-0.8363 0.9075,-2.0814 0.5674,-3.1231 -0.26,-0.7773 -1.0031,-1.2759 -1.7627,-1.5324 -1.033,-0.3542 -2.2572,-0.5446 -3.1928,-0.6337 -1.3599,-0.1295 -2.9759,-0.0766 -3.3608,-0.9702 -0.1535,-0.4679 -0.0229,-1.0489 0.4071,-1.3367 1.1377,-0.7717004 3.4532,-0.6692 4.6314,-0.0927 0.541,0.2709 0.8545,0.8273 0.9839,1.389 0.024,0.165 0.135,0.3372 0.326,0.33 0.4504,0.009 0.9008,0.0024 1.3511,0.003 0.1547,0.0108 0.3241,-0.0765 0.3543,-0.2349 -0.0191,-1.174 -0.6186,-2.3758004 -1.6999,-2.9484004 z"
     fill="#8cc84b"
     id="path2" />
</svg>
